<svg t="1617508055552" class="icon" viewBox="0 0 1024 1024" version="1.1" xmlns="http://www.w3.org/2000/svg" p-id="7765" width="32" height="32"><path d="M 751 153.5 h -25.2 v -44.7 c 0 -24.6 -20.2 -44.8 -44.8 -44.8 s -44.8 20.2 -44.8 44.8 v 44.7 H 387.8 v -44.7 c 0 -24.6 -20.2 -44.8 -44.8 -44.8 c -24.6 0 -44.8 20.2 -44.8 44.8 v 44.7 H 273 c -74.1 0 -134.4 60.3 -134.4 134.4 v 537.7 c 0 74.1 60.3 134.4 134.4 134.4 h 478 c 74.1 0 134.4 -60.3 134.4 -134.4 V 287.9 c 0 -74.1 -60.3 -134.4 -134.4 -134.4 Z m -114.8 89.6 v 31 H 387.8 v -31 h 248.4 Z m 159.6 582.5 c 0 24.7 -20.1 44.8 -44.8 44.8 H 273 c -24.7 0 -44.8 -20.1 -44.8 -44.8 V 287.9 c 0 -24.7 20.1 -44.8 44.8 -44.8 h 25.2 v 75.8 c 0 24.6 20.2 44.8 44.8 44.8 h 338 c 24.6 0 44.8 -20.2 44.8 -44.8 v -75.8 H 751 c 24.7 0 44.8 20.1 44.8 44.8 v 537.7 Z" fill="#ff5777" p-id="7766"></path><path d="M 691.2 501.8 H 332.8 c -24.6 0 -44.8 20.2 -44.8 44.8 c 0 24.6 20.2 44.8 44.8 44.8 h 358.5 c 24.6 0 44.8 -20.2 44.8 -44.8 c -0.1 -24.6 -20.2 -44.8 -44.9 -44.8 Z M 691.2 688.5 H 332.8 c -24.6 0 -44.8 20.2 -44.8 44.8 c 0 24.6 20.2 44.8 44.8 44.8 h 358.5 c 24.6 0 44.8 -20.2 44.8 -44.8 c -0.1 -24.6 -20.2 -44.8 -44.9 -44.8 Z" fill="#ff5777" p-id="7767"></path></svg>